<svg xmlns="http://www.w3.org/2000/svg" viewBox="0 0 872.34 875.3"><defs><style>.cls-1{fill:#1a1a1a;}.cls-2{fill:#fff;}</style></defs><title>LOGO</title><g id="Layer_1" data-name="Layer 1"><path class="cls-1" d="M254.77,30.21c-8.86-4-34.65,18.19-34,41.41.25,9.28,4.52,11.28,7.4,20.71C234,111.58,224.67,131,200,172.2c-27.3,45.68-27,40.57-34,54.73-18,36.54-19.27,69.73-20.7,106.49-1.85,47.44,6,48.53,4.43,112.41-1.08,45.15-4.77,35.64-4.43,68,.25,24.51,2.46,39-7.4,53.25-9.63,13.93-20.64,13-22.18,22.18-2.26,13.46,20,23.09,53.24,51.77,33.9,29.29,27.8,34.08,50.29,48.81,20.64,13.51,31.75,13.4,76.91,28.1,0,0,39.17,12.76,75.44,28.1,40.13,17,68.4,33.83,110.93,59.17,64.67,38.52,59.42,41.3,84.31,50.29,49.25,17.79,61.68,4,102,25.14a207.07,207.07,0,0,0,54.73,17.75c14,2.49,20.85,2.14,26.62-1.48,10.72-6.72,7-18,17.75-35.5,10.58-17.22,18.34-13.14,28.1-29.58,3.48-5.86,13-24.12,8.88-44.37-3.47-16.9-13.43-20.27-11.83-32.54,1.21-9.32,7.52-11.75,19.22-25.15,12.34-14.12,9.17-15.83,29.59-47.33,19.28-29.75,21.89-27.91,23.66-37,3.47-17.78-7.19-21.83-13.31-54.73-3.26-17.5-6.56-35.21,0-54.72,6.27-18.69,15.33-20.42,14.79-32.54-.91-20.46-27.52-34.83-37-39.94-17.66-9.54-21.86-6-50.29-14.79-36.4-11.27-67.46-20.89-76.91-44.37-2.61-6.49-4.11-15.38-11.83-19.23s-14,1.14-22.19,1.48c-20.36.85-38.17-27.89-56.2-57.69-21.28-35.17-22.73-49.55-38.46-54.72-13.66-4.49-17.79,4.65-38.45,3-19.52-1.6-28.11-10.76-56.21-26.63-31.7-17.9-30.34-11.66-56.21-26.62-14.94-8.65-42.91-25.14-68-54.73A329.83,329.83,0,0,1,316.89,113c-9.56-18.66-14-33-29.58-41.42-9.23-5-15.73-4.36-22.19-11.83C254.51,47.51,261.13,33.08,254.77,30.21Z" transform="translate(-75.2 -27.24)"/><path class="cls-1" d="M738.17,902.54a88.11,88.11,0,0,1-15-1.65,207.32,207.32,0,0,1-55.45-18c-21.16-11.08-34.43-12.36-49.79-13.84-13.48-1.3-28.75-2.78-52-11.16-14-5.08-18.69-8.21-31.1-16.58-9.86-6.66-24.78-16.72-53.64-33.91-42.55-25.35-70.65-42.09-110.63-59-36-15.23-74.84-27.9-75.23-28-14-4.55-24.75-7.7-33.41-10.23-19.67-5.75-29.55-8.63-44.1-18.16-11.73-7.68-15.9-12.74-21.67-19.74-5.5-6.67-12.34-15-28.88-29.27-10.72-9.26-20.47-16.65-28.3-22.59-17.18-13-27.55-20.9-25.78-31.48,1-5.76,5-8.36,9.35-11.12,4.12-2.64,8.78-5.62,13.25-12.08,7.87-11.39,7.59-23.21,7.15-41.11-.08-3.39-.16-6.89-.2-10.68-.17-16.1.64-21.89,1.65-29.23,1-7.16,2.24-16.07,2.78-38.9.81-33.3-1-49.65-2.53-64.06a285.44,285.44,0,0,1-1.9-48.39c1.41-36.24,2.74-70.48,21-107.5a95.43,95.43,0,0,1,8.47-14.25c4-5.91,10.8-15.81,25.65-40.65,25.21-42.18,33.21-60.28,27.85-77.86a42.3,42.3,0,0,0-3.62-8.32c-1.91-3.56-3.71-6.93-3.88-13-.44-16.1,11.19-32.42,22.89-40.21,5.87-3.9,11.08-5.17,14.66-3.55h0c4.17,1.88,4.52,6.57,4.9,11.53.42,5.56.95,12.48,6.31,18.7,3.67,4.24,7.34,5.55,12,7.22a62.63,62.63,0,0,1,9.5,4.05c13.53,7.33,19,18.65,25.94,33,1.47,3,3,6.19,4.68,9.48a330.56,330.56,0,0,0,38.13,55.72c25.35,29.86,53.74,46.29,67.39,54.19a137.66,137.66,0,0,0,24.84,11.77c6.93,2.57,14.79,5.49,31.34,14.84,7.65,4.31,13.79,8.1,19.21,11.44,14.4,8.86,22.33,13.75,36,14.86a51.42,51.42,0,0,0,20.56-2.32c5.52-1.58,10.74-3.06,18.47-.52,11.68,3.84,16.23,12.52,24.48,28.27,3.83,7.31,8.59,16.39,15.34,27.54,16.24,26.85,34.62,57.3,54,56.48a35.32,35.32,0,0,0,7.65-1.45c4.89-1.31,9.95-2.67,15.76.23,7.12,3.56,9.61,10.81,11.62,16.63.47,1.39.93,2.7,1.41,3.9,9,22.39,39.74,31.9,75.33,42.92a225.22,225.22,0,0,0,25.55,6.38c8.48,1.68,14.62,2.89,25.19,8.6,10.21,5.51,37.32,20.15,38.29,42,.32,7.33-2.58,11.48-5.94,16.27a60.65,60.65,0,0,0-9,17.17c-6.35,18.9-3.08,36.48.09,53.47A137.89,137.89,0,0,0,864,620.77c3.54,8.58,6.1,14.77,4.06,25.22-1.09,5.62-2.57,7.59-7,13.41-3.42,4.53-8.58,11.38-17.05,24.44-9.37,14.47-13.74,22.62-16.94,28.57-3.76,7-6,11.24-12.85,19.05-3.81,4.36-7.09,7.61-9.72,10.22-5.46,5.41-8.2,8.12-8.92,13.6-.74,5.69,1.36,9.12,4.26,13.86,2.6,4.27,5.85,9.57,7.55,17.86,4.22,20.59-5,39.13-9.18,46.15-5.12,8.63-9.83,12-14.37,15.21s-8.7,6.18-13.75,14.4c-4.62,7.53-6.44,13.75-8,19.24-2,6.89-3.75,12.84-10.5,17.07C747.85,901.41,743.84,902.54,738.17,902.54ZM296.94,715.67c5.84,1.71,43.77,14.62,75.65,28.11,40.29,17.06,68.51,33.87,111.23,59.31,29,17.28,44,27.39,53.89,34.08,12,8.12,16.53,11.15,30,16,22.61,8.16,37.55,9.61,50.73,10.88,15.88,1.53,29.6,2.86,51.63,14.4a206.82,206.82,0,0,0,54,17.5c13.43,2.38,19.71,2.09,24.86-1.14s6.43-7.6,8.36-14.23a77.52,77.52,0,0,1,8.59-20.46A47.61,47.61,0,0,1,781,844.28c4.31-3.06,8.39-6,13-13.69,3.87-6.51,12.46-23.71,8.58-42.59-1.53-7.43-4.39-12.11-6.92-16.25-3-5-5.91-9.67-4.94-17.11.93-7.18,4.68-10.9,10.35-16.51,2.57-2.56,5.78-5.74,9.47-10C817,720.78,819,717,822.72,710c3.23-6,7.66-14.28,17.15-28.91,8.56-13.22,13.79-20.15,17.25-24.74,4.19-5.55,5.18-6.87,6.06-11.36,1.75-9-.33-14-3.78-22.35a142.5,142.5,0,0,1-9.54-31.44c-3.28-17.63-6.67-35.85.09-56a65.79,65.79,0,0,1,9.63-18.45c3.18-4.54,5.28-7.54,5-13.18-.84-19-27.05-33.2-35.66-37.85-9.92-5.35-15.44-6.44-23.8-8.1a230.93,230.93,0,0,1-26-6.5c-36.81-11.4-68.6-21.24-78.49-45.83-.53-1.33-1-2.69-1.5-4.14-1.88-5.48-3.83-11.14-9.13-13.78-4.11-2.06-7.69-1.1-12.23.12a39.56,39.56,0,0,1-8.73,1.62l-1,0c-21.81,0-39.92-29.94-57.45-58.91-6.82-11.28-11.63-20.44-15.49-27.81-8.14-15.54-11.86-22.63-21.61-25.84-6.28-2.06-10.16-.95-15.54.58a56.46,56.46,0,0,1-22.34,2.5c-14.83-1.22-23.62-6.63-38.18-15.6-5.38-3.31-11.48-7.07-19.05-11.34-16.2-9.15-23.53-11.87-30.62-14.5a142.13,142.13,0,0,1-25.61-12.14c-13.88-8-42.78-24.75-68.69-55.27a335.53,335.53,0,0,1-38.77-56.68c-1.72-3.35-3.25-6.52-4.74-9.59-6.79-14-11.7-24.2-23.81-30.77a59.18,59.18,0,0,0-8.8-3.74c-4.92-1.75-9.56-3.41-14.09-8.65-6.45-7.47-7.06-15.63-7.52-21.6-.31-4.14-.57-6.71-2-7.34s-4.81-.18-9.82,3.15c-10.57,7-21.06,21.63-20.67,35.92.13,4.93,1.46,7.4,3.29,10.82a48.3,48.3,0,0,1,4,9.22c6.26,20.58-4.35,41.74-28.35,81.88-14.93,25-21.74,35-25.81,40.91A90,90,0,0,0,168.27,228c-17.76,36.06-19,68.24-20.45,105.49a277.46,277.46,0,0,0,1.87,47.65c1.58,14.57,3.37,31.09,2.56,64.72-.55,23.12-1.81,32.19-2.82,39.47-1,7.13-1.78,12.76-1.61,28.48,0,3.76.12,7.24.2,10.61.44,18.21.76,31.36-8,44.09-5,7.28-10.38,10.7-14.67,13.44s-6.54,4.32-7.11,7.73c-1.27,7.61,8.19,14.78,23.87,26.67,7.89,6,17.71,13.43,28.55,22.8,16.86,14.57,23.85,23.05,29.47,29.87,5.49,6.66,9.46,11.47,20.55,18.74,13.93,9.12,23.56,11.93,42.76,17.54,8.7,2.54,19.52,5.71,33.56,10.28Z" transform="translate(-75.2 -27.24)"/><path class="cls-1" d="M657.26,715.27l-6.32,56.83-22.34-2.48,6.88-30.74c.14-.6.28-1.19.44-1.79h0l5.29-23.62Z" transform="translate(-75.2 -27.24)"/><path class="cls-1" d="M926.05,493.7l21.5-96-215.47,1.44-43.47.3-87.26.58c-6.94.05-19.93,1-19.93,1l4.06-18.14-12.67-66.47-47.16.32-28.75.19-3.08,0-29.22.2-16.76.11-34,.23-10.53.07-49.06.33-14.78.1-65.57.44-16.76.11-32.57.22-54.3-.22L151.47,403h-.18L75.2,743l167.38-1.12,31.49-.22,69.85-.47,40.93-.27,101.59-.68,38.82-.26,87.26-.59c8.82-.06,218-2.66,257-2.66M731.22,495l37.31-.26" transform="translate(-75.2 -27.24)"/><path class="cls-2" d="M171.3,405l15.47-69.14,13.71-.1-12.61,56.36,19-.13L204,404.77Z" transform="translate(-75.2 -27.24)"/><path class="cls-2" d="M226.67,391.32,221,404.66l-13.18.09L235.29,339l17.3-.12-2,65.59-13.22.09.41-13.31Zm5.08-12.16,6.33,0,3.08-28Z" transform="translate(-75.2 -27.24)"/><path class="cls-2" d="M280.65,362l-9.47,42.3-13,.09,14.7-65.67,18.07-.13L292.08,381l9.51-42.5,13-.09-14.7,65.68-18,.12Z" transform="translate(-75.2 -27.24)"/><path class="cls-2" d="M348.4,376.79l-30.72.2,2.58-11.56,30.73-.21Z" transform="translate(-75.2 -27.24)"/><path class="cls-2" d="M370,338.08l28.77-.19a7.64,7.64,0,0,1,6.15,2.53,6.82,6.82,0,0,1,1.47,6.35l-3.78,16.92a19.55,19.55,0,0,1-8.46,12.14,25.41,25.41,0,0,1-14.43,4.38l-6.16,0-5.24,23.42-13,.08Zm10.3,12.05-4,18,6.17,0c4.1,0,6.48-1.46,7.11-4.29l3.07-13.73Z" transform="translate(-75.2 -27.24)"/><path class="cls-2" d="M417.39,390l-5.64,13.35-13.18.08L426,337.71l17.3-.12-2,65.59-13.22.09.41-13.31Zm5.08-12.15,6.33,0,3.08-28Z" transform="translate(-75.2 -27.24)"/><path class="cls-2" d="M467.14,379.62,461.9,403l-13,.09,14.69-65.68,28.77-.19a7.68,7.68,0,0,1,6.16,2.53,6.88,6.88,0,0,1,1.47,6.35l-3.79,16.92a16.32,16.32,0,0,1-7.32,10.34q4.15,3.8,2.69,10.34l-4.28,19.13-13,.09,4.28-19.13a3.31,3.31,0,0,0-.71-3.06,3.81,3.81,0,0,0-3-1.2Zm10.39-12.19a5.85,5.85,0,0,0,3.55-1.29,5,5,0,0,0,2.05-3l3.08-13.73-12.33.08-4,18Z" transform="translate(-75.2 -27.24)"/><path class="cls-2" d="M519.58,349.2l-12.73.08,2.72-12.14,38.4-.25L545.25,349l-12.69.09-12,53.53-13,.09Z" transform="translate(-75.2 -27.24)"/><path class="cls-2" d="M565.88,379.89l-5,22.48-13.06.09,5-22.44-4-43.14,13.3-.09q.72,9.54-.17,31.38,9-21.89,13.92-31.47l13.31-.09Z" transform="translate(-75.2 -27.24)"/><path class="cls-2" d="M171.79,666.77l98.92-.66-12.39,55.37-158.27,1.07,67-299.34,158.27-1.06-12.39,55.37-98.92.67L199.11,544.7l82.32-.55L269,599.7l-82.31.56Z" transform="translate(-75.2 -27.24)"/><path class="cls-2" d="M357.39,660.23,331.8,721l-60.06.4L396.67,421.67l79-.53L466.4,720.08l-60.24.41,1.93-60.6Zm23.17-55.45,29-.19,14.06-127.46Z" transform="translate(-75.2 -27.24)"/><path class="cls-2" d="M656.12,475.21l-56.17.38-10.57,47.24q-4.3,19.27,23.77,19.09,36.74-.24,56.9,19.23,21.47,20.7,13.79,55L670,677.91q-3.79,17-19.56,29.1Q634.91,719,617.07,719.07l-87.26.59Q512,719.78,501.73,708q-10.38-11.94-6.58-28.92l13.5-60.33,59.35-.4-10.25,45.82,56.17-.38,10.57-47.24q4.32-19.27-23.77-19.09-36.74.25-56.9-19.22-21.47-20.7-13.79-55l13.82-61.75q3.79-17,19.56-29.1Q579,420.44,596.8,420.32l87.26-.59q17.84-.12,28.08,11.65,10.38,11.94,6.58,28.93l-13.46,60.15-59.35.4Z" transform="translate(-75.2 -27.24)"/><path class="cls-2" d="M793.37,474.29l-57.93.39,12.39-55.37,174.87-1.18L910.31,473.5l-57.76.39-54.6,244-59.18.4Z" transform="translate(-75.2 -27.24)"/><rect class="cls-1" x="589.37" y="727.66" width="62.96" height="11.68" transform="translate(-80.18 -23.01) rotate(-0.39)"/></g><g id="Layer_2" data-name="Layer 2"><text x="-75.2" y="-27.24"/></g></svg>